<svg xmlns="http://www.w3.org/2000/svg" viewBox="0 0 480 480">
<rect x="288.3" y="157.2" fill="#ffffff" width="75.6" height="17.6"/>
<path fill="#ffffff" d="M284.2,309.9c12.8,10.4,28.8,16,45.3,15.8c20.7,0,36.9-6.3,48.4-18.8c7.4-7.9,11.6-15.7,12.5-23.3H356
	c-1.7,3.3-4,6.4-6.9,8.8c-4.8,3.9-11,5.9-18.7,5.9c-6.5,0.2-12.9-1.5-18.5-4.8c-8.5-5.2-13-14.3-13.5-27.2h93.7
	c0.3-8.5,0-17.1-0.9-25.5c-1.4-9.5-4.9-18.6-10.3-26.6c-5.4-8.3-13.1-14.9-22.2-19c-9.6-4.1-19.9-6.2-30.3-6
	c-18.9,0.1-34.3,6-46.1,17.9c-11.8,11.9-17.7,29-17.7,51.3C264.6,282.2,271.1,299.3,284.2,309.9z M308.1,224.2
	c4.8-4.9,11.5-7.3,20.1-7.3c7.3-0.3,14.4,2.2,20,6.9c5.4,4.6,8.4,11.4,8.9,20.3h-58C300.4,235.7,303.4,229.1,308.1,224.2z"/>
<path fill="#ffffff" d="M214.9,318.8c7.2-1.3,13.9-4.3,19.7-8.7c4.9-3.7,9.1-8.4,12.3-13.7c5.2-8.3,7.9-17.9,7.7-27.7
	c0-10-2.3-18.5-6.8-25.5c-4.8-7.2-11.9-12.6-20.1-15.4c5.1-2.4,9.6-5.7,13.3-9.9c5.4-6.4,8.1-15,8.1-25.6c0.2-9.5-2.6-18.8-8-26.6
	c-8.9-12-23.9-18.2-45.1-18.5h-84v174h78.3C198.6,321.2,206.8,320.4,214.9,318.8z M146.8,177.4h37.8c7-0.2,13.9,0.7,20.6,2.7
	c6.2,2.6,9.3,8,9.3,16.1c0,7.3-2.4,12.4-7.1,15.3c-4.8,2.8-10.9,4.3-18.4,4.3h-42.2V177.4z M146.7,291v-46.3h42.8
	c7.5,0,13.3,1,17.4,2.9c7.4,3.3,11.1,9.5,11.1,18.6c0,10.7-3.8,17.9-11.4,21.7c-4.2,2.1-10.1,3.1-17.6,3.1H146.7z"/>
</svg>
